<svg xmlns="http://www.w3.org/2000/svg" width="338.495" height="38.406" viewBox="0 0 338.495 38.406">
  <defs>
    <style>
      .cls-1 {
        fill-rule: evenodd;
      }
    </style>
  </defs>
  <path id="BELLAVITA" class="cls-1" d="M806.716,103.482q7.1,0,10.7-2.45a8.1,8.1,0,0,0,3.6-7.15,7.912,7.912,0,0,0-3.175-6.85q-3.175-2.3-9.125-2.4v-0.1a20.211,20.211,0,0,0,5.9-1.1,7.755,7.755,0,0,0,3.65-2.6,6.982,6.982,0,0,0,1.25-4.25,7.273,7.273,0,0,0-3.575-6.55q-3.575-2.25-10.725-2.25h-14.6v0.5h2.05a3.35,3.35,0,0,1,1.3.25,1.893,1.893,0,0,1,.95.925,4.557,4.557,0,0,1,.35,2.025v28.25a4.883,4.883,0,0,1-.35,2.1,1.782,1.782,0,0,1-.925.925,3.618,3.618,0,0,1-1.325.225h-2.05v0.5h16.1Zm-3.55-.5V85.032h3.4a6.172,6.172,0,0,1,3.525.9,5.1,5.1,0,0,1,1.925,2.85,18.234,18.234,0,0,1,.6,5.2q0,4.85-1.4,6.926t-4.75,2.075h-3.3Zm0-18.451V68.282h1.8q3.349,0,4.75,1.85t1.4,6.25a15.2,15.2,0,0,1-.6,4.7,4.7,4.7,0,0,1-1.925,2.625,6.606,6.606,0,0,1-3.525.825h-1.9Zm60.35,18.951,0.35-9.2h-0.5l-0.15,1.65a9.668,9.668,0,0,1-1.1,4.1,5.229,5.229,0,0,1-2.575,2.25,11.329,11.329,0,0,1-4.325.7h-8.4v-17.9h11.85v-0.5h-11.85v-16.3h6.7a11.5,11.5,0,0,1,4.375.7,5.134,5.134,0,0,1,2.55,2.225,9.742,9.742,0,0,1,1.075,4.075l0.15,1.7h0.5l-0.3-9.2h-27.65v0.5h2.1a3.618,3.618,0,0,1,1.325.225,1.7,1.7,0,0,1,.9.9,5.177,5.177,0,0,1,.325,2.125v28.45a4.245,4.245,0,0,1-.35,1.951,1.688,1.688,0,0,1-.925.85,3.867,3.867,0,0,1-1.275.2h-2.1v0.5h29.3Zm42.6,0,0.4-11.15h-0.5l-0.2,2.65a11.154,11.154,0,0,1-1.175,4.65,5.734,5.734,0,0,1-2.875,2.55,12.919,12.919,0,0,1-4.95.8h-7.35V71.332a4.389,4.389,0,0,1,.35-2,1.69,1.69,0,0,1,.925-0.85,3.872,3.872,0,0,1,1.275-.2h2.1v-0.5h-17.25v0.5h2.1a3.618,3.618,0,0,1,1.325.225,1.7,1.7,0,0,1,.9.9,5.177,5.177,0,0,1,.325,2.125v28.2a5.205,5.205,0,0,1-.325,2.1,1.69,1.69,0,0,1-.9.925,3.618,3.618,0,0,1-1.325.225h-2.1v0.5h29.25Zm42.7,0,0.4-11.15h-0.5l-0.2,2.65a11.169,11.169,0,0,1-1.175,4.65,5.738,5.738,0,0,1-2.875,2.55,12.919,12.919,0,0,1-4.95.8h-7.35V71.332a4.375,4.375,0,0,1,.35-2,1.687,1.687,0,0,1,.925-0.85,3.872,3.872,0,0,1,1.275-.2h2.1v-0.5h-17.25v0.5h2.1a3.621,3.621,0,0,1,1.325.225,1.7,1.7,0,0,1,.9.9,5.194,5.194,0,0,1,.325,2.125v28.2a5.223,5.223,0,0,1-.325,2.1,1.69,1.69,0,0,1-.9.925,3.621,3.621,0,0,1-1.325.225h-2.1v0.5h29.25Zm24.249,0v-0.5h-3.55a3.573,3.573,0,0,1-1.85-.375,1.437,1.437,0,0,1-.6-1.325,3.9,3.9,0,0,1,.1-0.85q0.1-.45.275-1.026t0.425-1.225l2.85-7.75h12.9l2.85,8.4a7.74,7.74,0,0,1,.3,1.025q0.1,0.476.175,0.85a3.476,3.476,0,0,1,.075.675,1.353,1.353,0,0,1-.575,1.225,3.191,3.191,0,0,1-1.725.375h-2.7v0.5h16.5v-0.5h-0.15a3.55,3.55,0,0,1-1.6-.325,3.126,3.126,0,0,1-1.175-1.125,10.825,10.825,0,0,1-1.025-2.15l-11.2-31.6h-4.9l-11.55,31.55a10.825,10.825,0,0,1-1.025,2.15,2.973,2.973,0,0,1-2.775,1.5h-2.05v0.5h12Zm1.4-23.251q0.349-.9.775-2.05t0.875-2.4q0.45-1.249.85-2.4t0.7-2.05q0.3,1.25.775,2.975t1,3.4q0.525,1.676.925,2.875l3.1,9.35h-12.55Zm50.005,25.3,15.4-36.053h-3.8l-11.6,27.4-11.65-27.4h-3.81Zm33.14-2.05v-34h-3.5v34h3.5Zm14.75-30.852h8.25v30.752h3.5V72.63h8.26v-3.25h-20.01v3.25Zm35.66,18.351,6.19-15.651,6.18,15.651h-12.37Zm21.1,12.5-14.91-36.353-14.95,36.353h3.8l3.67-9.251h14.94l3.65,9.251h3.8Z" transform="translate(-790.625 -67.125)"/>
</svg>
