<svg xmlns="http://www.w3.org/2000/svg" data-test="" class="icon is-medium  is-clear-text " focusable="false" viewBox="0 0 1 1" aria-hidden="true" xmlns:xlink="http://www.w3.org/1999/xlink" width="15"  height="15" ><defs><symbol id="clear-text" viewBox="0 0 16 16"><circle cx="8" cy="8" r="8"></circle><path d="M11.29 12a.55.55 0 0 1-.5-.21L8 9l-2.79 2.79a.71.71 0 0 1-1-1L7 8 4.21 5.21a.5.5 0 0 1-.15-.35v-.3a.5.5 0 0 1 .15-.35.71.71 0 0 1 1 0L8 7l2.79-2.79a.5.5 0 0 1 .35-.15h.29a.5.5 0 0 1 .35.15.71.71 0 0 1 0 1L9 8l2.79 2.79a.71.71 0 0 1-.5 1.21zm.21-.92z" fill="#fff"></path></symbol></defs>
  <use xlink:href="#clear-text" stroke="#767676" fill="#767676" stroke-width="0px"></use>
</svg>