<svg xmlns="http://www.w3.org/2000/svg" data-test="" class="icon is-large  is-Geolocation " focusable="false" viewBox="0 0 1 1" aria-hidden="true" xmlns:xlink="http://www.w3.org/1999/xlink" width="17"  height="17" ><defs><symbol id="Geolocation" viewBox="0 0 17 17"><title>Navigation/Geolocalization</title><g fill="#000" fill-rule="nonzero"><path d="M8 0h1v1.2H8zM0 8h1.2v1H0zM15.8 8H17v1h-1.2z"></path><circle cx="3.5" cy="3.5" r="3.5" transform="translate(5 5)"></circle><path d="M8 15.8h1V17H8z"></path><g><path d="M8.5 16C4.38 16 1 12.62 1 8.5S4.38 1 8.5 1 16 4.38 16 8.5 12.62 16 8.5 16zm0-14A6.458 6.458 0 0 0 2 8.5C2 12.123 4.877 15 8.5 15S15 12.123 15 8.5 12.123 2 8.5 2z"></path></g></g></symbol></defs>
  <use xlink:href="#Geolocation" stroke="#333333" fill="#333333" stroke-width="0px"></use>
</svg>